<?xml version="1.0" encoding="utf-8"?>
<!-- Generator: Adobe Illustrator 27.0.0, SVG Export Plug-In . SVG Version: 6.00 Build 0)  -->
<svg version="1.1" id="Layer_1" xmlns="http://www.w3.org/2000/svg" xmlns:xlink="http://www.w3.org/1999/xlink" x="0px" y="0px"
	 viewBox="0 0 400 400" style="enable-background:new 0 0 400 400;" xml:space="preserve">
<style type="text/css">
	.st0{font-family:'PressStart2P-Regular';}
	.st1{font-size:24px;}
</style>
<g transform="translate(0.000000,400.000000) scale(0.100000,-0.100000)">
	<path d="M1757,2994c-4-4-7-31-7-61v-53h250h251l-3,58l-3,57l-241,3C1872,2999,1761,2997,1757,2994z"/>
	<path d="M1630,2810v-61l58,3l57,3l3,58l3,57h-61h-60V2810z"/>
	<path d="M2252,2813l3-58l58-3l57-3v61v60h-60h-61L2252,2813z"/>
	<path d="M1507,2743c-4-3-7-30-7-60v-53h60h60v60v60h-53C1537,2750,1510,2747,1507,2743z"/>
	<path d="M2380,2690v-60h60h61l-3,58l-3,57l-57,3l-58,3V2690z"/>
	<path d="M1380,2500v-120h60h60v120v120h-60h-60V2500z"/>
	<path d="M2500,2500v-120h60h60v120v120h-60h-60V2500z"/>
	<path d="M1250,2250v-120h60h60v120v120h-60h-60V2250z"/>
	<path d="M2630,2250v-120h60h60v120v120h-60h-60V2250z"/>
	<path d="M1130,1750v-370h60h60v370v370h-60h-60V1750z"/>
	<path d="M2750,1750v-370h60h60v370v370h-60h-60V1750z"/>
	<path d="M1252,1313l3-58l58-3l57-3v61v60h-60h-61L1252,1313z"/>
	<path d="M2630,1310v-61l58,3l57,3l3,58l3,57h-61h-60V1310z"/>
	<path d="M1380,1190v-60h60h61l-3,58l-3,57l-57,3l-58,3V1190z"/>
	<path d="M2507,1243c-4-3-7-30-7-60v-53h60h60v60v60h-53C2537,1250,2510,1247,2507,1243z"/>
	<path d="M1502,1063l3-58l58-3l57-3v61v60h-60h-61L1502,1063z"/>
	<path d="M2380,1060v-61l58,3l57,3l3,58l3,57h-61h-60V1060z"/>
	<path d="M1630,940v-60h370h370v60v60h-370h-370V940z"/>
</g>
<text transform="matrix(1 0 0 1 187.8424 248.4567)" class="st0 st1">3</text>
</svg>
